<?xml version="1.0" encoding="UTF-8" standalone="no"?>
<!-- Generator: Adobe Illustrator 16.0.0, SVG Export Plug-In . SVG Version: 6.00 Build 0)  -->

<svg
   xmlns:dc="http://purl.org/dc/elements/1.1/"
   xmlns:cc="http://creativecommons.org/ns#"
   xmlns:rdf="http://www.w3.org/1999/02/22-rdf-syntax-ns#"
   xmlns:svg="http://www.w3.org/2000/svg"
   xmlns="http://www.w3.org/2000/svg"
   xmlns:sodipodi="http://sodipodi.sourceforge.net/DTD/sodipodi-0.dtd"
   xmlns:inkscape="http://www.inkscape.org/namespaces/inkscape"
   version="1.1"
   id="Layer_1"
   x="0px"
   y="0px"
   width="136.913px"
   height="136.913px"
   viewBox="0 0 136.913 136.913"
   enable-background="new 0 0 136.913 136.913"
   xml:space="preserve"
   inkscape:version="0.91 r"
   sodipodi:docname="icon.svg"><metadata
   id="metadata351"><rdf:RDF><cc:Work
       rdf:about=""><dc:format>image/svg+xml</dc:format><dc:type
         rdf:resource="http://purl.org/dc/dcmitype/StillImage" /><dc:title></dc:title></cc:Work></rdf:RDF></metadata><defs
   id="defs349" /><sodipodi:namedview
   pagecolor="#ffffff"
   bordercolor="#666666"
   borderopacity="1"
   objecttolerance="10"
   gridtolerance="10"
   guidetolerance="10"
   inkscape:pageopacity="0"
   inkscape:pageshadow="2"
   inkscape:window-width="2560"
   inkscape:window-height="981"
   id="namedview347"
   showgrid="false"
   inkscape:zoom="1.7237224"
   inkscape:cx="68.456497"
   inkscape:cy="68.456497"
   inkscape:window-x="0"
   inkscape:window-y="22"
   inkscape:window-maximized="1"
   inkscape:current-layer="g11" />
<g
   id="g3">
	<g
   id="g5">
		<g
   id="g7">
			<g
   id="g9">
				<g
   id="g11">
					<g
   id="g13"
   style="fill:#ff7f2a">
						<g
   id="g15"
   style="fill:#ff7f2a">
							<g
   id="g17"
   style="fill:#ff7f2a">
								<circle
   fill="#344E5D"
   cx="68.456"
   cy="68.455"
   r="63.333"
   id="circle19"
   style="fill:#ff7f2a" />
							</g>
						</g>
					</g>
				</g>
			</g>
		</g>
	</g>
	
</g>
<g
   id="g4493"
   transform="translate(269.19189,-73.745)"><path
     id="path4483"
     d="m -151.08539,142.2015 c 0,3.1 -0.6,6.1 -1.7,8.9 -1.2,2.9 -2.9,5.6 -5.2,7.8 -2.3,2.3 -4.9,4 -7.8,5.2 -2.8,1.2 -5.8,1.7 -8.9,1.7 -3.1,0 -6.1,-0.6 -8.9,-1.7 -2.9,-1.2 -5.6,-2.9 -7.8,-5.2 l -16.9,-16.7 0,0 -9.2,-9.2 c -2.5,-2.5 -5.8,-3.8 -9.3,-3.8 -3.5,0 -6.8,1.4 -9.2,3.8 -2.5,2.4 -3.8,5.7 -3.8,9.2 0,3.5 1.4,6.8 3.8,9.2 2.5,2.5 5.7,3.8 9.2,3.8 3.5,0 6.8,-1.4 9.2,-3.8 l 1.6,-1.6 7.5,7.5 -1.6,1.6 c -2.3,2.3 -4.9,4 -7.8,5.2 -2.8,1.2 -5.8,1.7 -8.9,1.7 -3.1,0 -6.1,-0.6 -8.9,-1.7 -2.9,-1.2 -5.6,-2.9 -7.8,-5.2 -2.3,-2.3 -4,-4.9 -5.2,-7.8 -1.2,-2.8 -1.7,-5.8 -1.7,-8.9 0,-3.1 0.6,-6.1 1.7,-8.9 1.2,-2.9 2.9,-5.6 5.2,-7.8 2.3,-2.3 4.9,-4 7.8,-5.2 2.8,-1.2 5.8,-1.7 8.9,-1.7 3.1,0 6.1,0.6 8.9,1.7 2.9,1.2 5.6,2.9 7.8,5.2 l 22.3,22.2 0,0 3.7,3.7 c 2.5,2.5 5.7,3.8 9.2,3.8 3.5,0 6.8,-1.4 9.2,-3.8 2.5,-2.5 3.8,-5.7 3.8,-9.2 0,-3.5 -1.4,-6.8 -3.8,-9.2 -2.4,-2.5 -5.6,-3.8 -9.1,-3.8 -3.5,0 -6.8,1.4 -9.2,3.8 l -1.9,1.9 -7.5,-7.5 1.9,-1.9 c 2.3,-2.3 4.9,-4 7.8,-5.2 2.8,-1.2 5.8,-1.7 8.9,-1.7 3.1,0 6.1,0.6 8.9,1.7 2.9,1.2 5.6,2.9 7.8,5.2 2.3,2.3 4,4.9 5.2,7.8 1.2,2.8 1.8,5.8 1.8,8.9 z"
     inkscape:connector-curvature="0"
     style="fill:#ffffff" /></g></svg>